<?xml version="1.0" encoding="UTF-8"?>
<svg width="32px" height="32px" viewBox="0 0 32 32" version="1.1" xmlns="http://www.w3.org/2000/svg" xmlns:xlink="http://www.w3.org/1999/xlink">
    <title>画板</title>
    <g id="画板" stroke="none" stroke-width="1" fill="none" fill-rule="evenodd">
        <g id="vite" transform="translate(5.000000, 0.000000)" fill="#000000" fill-rule="nonzero">
            <g id="编组">
                <path d="M15.4998403,23 C13.0171593,23 11,25.0172018 11,27.5 C11,29.9827982 13.0171593,32 15.4998403,32 C17.9825214,32 19.999757,29.9827982 19.999757,27.5 C20.0256278,25.0172018 17.9825214,23 15.4998403,23 Z" id="路径"></path>
                <path d="M18.1507307,0 C17.1218517,0 16.1984608,0.554003608 15.6972559,1.37184972 C14.1670942,0.501256988 12.3730954,0 10.5,0 C4.69597325,0 0,4.69598076 0,10.4999844 C0,16.303988 4.69597325,21 10.5,21 C16.3040268,21 21,16.303988 21,10.4999844 C21,8.60048092 20.4987173,6.83288308 19.6281094,5.30276225 C20.4459343,4.801474 21,3.90454704 21,2.84922393 C21,1.29269071 19.7336754,0 18.1507307,0 Z M10.5,16.9635161 C6.93844061,16.9635161 4.03642723,14.0615143 4.03642723,10.4999844 C4.03642723,6.93845446 6.93844061,4.03645266 10.5,4.03645266 C14.0615283,4.03645266 16.9635806,6.93845446 16.9635806,10.4999844 C16.9635806,14.0615143 14.0615283,16.9635161 10.5,16.9635161 Z" id="形状"></path>
            </g>
        </g>
    </g>
</svg>